<?xml version="1.0" standalone="no"?>
<!DOCTYPE svg PUBLIC "-//W3C//DTD SVG 20010904//EN"
 "http://www.w3.org/TR/2001/REC-SVG-20010904/DTD/svg10.dtd">
<svg version="1.0" xmlns="http://www.w3.org/2000/svg"
 width="1336.000000pt" height="642.000000pt" viewBox="0 0 1336.000000 642.000000"
 preserveAspectRatio="xMidYMid meet">

<g transform="translate(0.000000,642.000000) scale(0.100000,-0.100000)"
fill="#000000" stroke="none">
<path d="M941 5964 c-130 -35 -248 -127 -308 -240 -68 -127 -63 60 -63 -2479
0 -2539 -5 -2352 63 -2479 61 -115 179 -206 312 -241 53 -13 399 -15 3075 -15
3321 0 3067 -5 3190 61 74 39 160 126 199 199 65 121 61 -44 61 2475 0 2519 4
2354 -61 2475 -39 73 -125 160 -199 199 -123 66 132 61 -3195 60 -2604 0
-3027 -2 -3074 -15z m3855 -1010 c27 -28 34 -44 34 -76 0 -32 -153 -400 -696
-1672 -383 -897 -705 -1643 -715 -1658 -23 -32 -78 -52 -119 -43 -17 4 -44 20
-60 37 -24 24 -30 38 -30 73 0 35 131 351 689 1657 379 887 696 1629 706 1649
22 46 59 68 114 69 37 0 49 -5 77 -36z m377 -398 c18 -8 301 -284 670 -653
l637 -639 0 -49 0 -50 -642 -643 c-354 -354 -655 -650 -670 -658 -47 -25 -92
-18 -132 20 -30 28 -36 40 -36 75 0 23 6 54 14 69 8 15 276 288 595 607 l581
580 -590 590 -590 591 0 43 c0 53 24 95 64 115 39 19 58 20 99 2z m-2195 -10
c57 -29 74 -118 34 -173 -11 -15 -277 -284 -591 -598 l-571 -570 584 -585
c515 -515 585 -589 591 -622 9 -49 1 -78 -29 -111 -29 -32 -64 -41 -114 -32
-33 6 -110 79 -651 618 -337 337 -626 630 -642 651 -22 30 -29 50 -29 85 l0
46 653 652 652 653 43 0 c24 0 55 -6 70 -14z"/>
<path d="M9113 5275 c-262 -71 -345 -388 -151 -577 102 -99 267 -123 398 -58
55 28 119 96 148 158 23 49 27 70 27 152 0 83 -4 101 -27 145 -49 92 -119 150
-218 179 -64 19 -108 19 -177 1z"/>
<path d="M10945 4314 c-312 -47 -541 -155 -711 -337 -74 -79 -122 -151 -179
-269 -66 -137 -95 -262 -102 -438 -11 -287 41 -491 182 -706 61 -94 169 -206
255 -264 345 -234 850 -274 1225 -96 118 56 170 91 267 184 83 79 160 190 202
289 23 56 69 205 63 208 -4 3 -512 55 -534 55 -13 0 -23 -6 -23 -13 0 -31 -71
-157 -118 -207 -61 -67 -125 -104 -228 -130 -194 -50 -390 -2 -514 124 -74 75
-106 129 -142 236 -30 90 -32 103 -33 250 0 118 4 171 18 220 41 151 142 297
245 353 96 52 156 67 271 67 151 0 257 -32 346 -106 54 -44 119 -140 141 -209
9 -27 18 -51 19 -53 3 -3 547 57 552 61 2 2 -8 44 -22 92 -33 113 -94 230
-166 320 -145 180 -305 277 -562 341 -82 20 -133 26 -262 29 -88 2 -173 1
-190 -1z"/>
<path d="M8887 3108 c-4 -1266 -2 -1230 -56 -1342 -30 -61 -101 -122 -165
-142 -28 -8 -86 -18 -128 -21 l-78 -6 0 -235 0 -235 128 7 c456 23 724 199
841 551 68 204 65 148 68 1433 l4 1162 -305 0 -305 0 -4 -1172z"/>
</g>
</svg>
