<?xml version="1.0" standalone="no"?>
<!DOCTYPE svg PUBLIC "-//W3C//DTD SVG 20010904//EN"
 "http://www.w3.org/TR/2001/REC-SVG-20010904/DTD/svg10.dtd">
<svg version="1.0" xmlns="http://www.w3.org/2000/svg"
 width="1470.000000pt" height="304.000000pt" viewBox="0 0 1470.000000 304.000000"
 preserveAspectRatio="xMidYMid meet">

<g transform="translate(0.000000,304.000000) scale(0.100000,-0.100000)"
fill="#000000" stroke="none">
<path d="M609 2654 c-66 -20 -137 -72 -176 -128 -66 -96 -64 -59 -61 -1042 l3
-889 26 -56 c34 -72 96 -134 168 -168 l56 -26 1115 0 1115 0 47 22 c71 32 141
103 174 176 l29 62 0 900 0 900 -29 62 c-33 73 -103 144 -174 176 l-47 22
-1100 2 c-932 1 -1107 0 -1146 -13z m1361 -693 c0 -9 -89 -225 -198 -481 -184
-432 -200 -465 -224 -468 -56 -7 -48 19 159 504 200 472 215 500 251 472 6 -6
12 -18 12 -27z m293 -278 c97 -99 177 -186 177 -193 0 -8 -83 -97 -184 -198
-150 -150 -188 -183 -207 -180 -16 2 -25 11 -27 27 -3 20 27 55 162 190 l166
166 -165 165 c-91 91 -165 172 -165 182 0 22 30 39 50 28 8 -5 95 -89 193
-187z m-802 166 c10 -19 -5 -37 -157 -190 l-168 -169 163 -164 c131 -132 162
-169 159 -188 -2 -15 -11 -24 -27 -26 -20 -3 -56 28 -202 174 -98 97 -180 187
-183 198 -4 17 30 57 177 203 188 188 214 206 238 162z"/>
<path d="M5469 2220 c-99 -17 -177 -82 -198 -166 -6 -23 -11 -74 -11 -113 l0
-70 -72 -3 -73 -3 -3 -77 -3 -78 76 0 75 0 0 -290 0 -290 100 0 100 0 2 288 3
287 148 3 147 3 0 -291 0 -290 100 0 100 0 2 288 3 287 78 3 77 3 0 79 0 80
-80 0 -80 0 0 43 c0 104 35 147 120 147 l40 0 0 86 0 87 -86 -7 c-194 -15
-274 -96 -274 -277 l0 -79 -151 0 -152 0 5 63 c8 96 37 127 118 127 l40 0 0
85 0 85 -52 -1 c-29 -1 -74 -5 -99 -9z"/>
<path d="M3953 2175 c-33 -33 -35 -38 -31 -87 4 -42 11 -57 37 -80 89 -79 232
17 187 126 -20 49 -61 76 -113 76 -38 0 -50 -5 -80 -35z"/>
<path d="M13088 2028 c-8 -128 -31 -158 -123 -158 l-45 0 0 -80 0 -79 73 -3
72 -3 5 -220 c5 -241 9 -257 70 -308 42 -36 89 -47 198 -47 l93 0 -3 78 -3 77
-58 5 c-41 4 -63 11 -72 24 -20 26 -27 102 -23 256 l3 135 78 3 77 3 0 79 0
80 -80 0 -80 0 0 120 0 120 -89 0 -88 0 -5 -82z"/>
<path d="M4558 1865 c-153 -42 -247 -164 -256 -334 -3 -46 1 -108 8 -140 40
-187 215 -297 431 -270 87 11 161 44 213 96 44 44 93 133 74 134 -7 0 -49 6
-93 13 l-80 14 -29 -35 c-51 -61 -136 -80 -213 -48 -63 26 -93 64 -108 133
l-7 32 278 0 277 0 -6 78 c-17 223 -146 344 -366 341 -42 0 -97 -7 -123 -14z
m207 -149 c38 -16 62 -47 71 -94 l7 -32 -167 0 c-152 0 -166 1 -166 18 0 28
46 87 82 105 41 20 127 22 173 3z"/>
<path d="M6440 1864 c-108 -29 -194 -108 -236 -219 -28 -74 -26 -230 4 -306
44 -112 138 -187 269 -214 122 -26 270 9 354 83 34 30 96 129 86 138 -2 3 -33
9 -68 14 -35 6 -76 12 -90 14 -20 4 -29 -1 -43 -26 -39 -65 -156 -87 -237 -45
-46 24 -89 88 -89 134 l0 23 270 0 270 0 0 64 c0 167 -90 298 -233 341 -63 19
-185 18 -257 -1z m221 -157 c33 -22 49 -46 64 -94 l6 -23 -171 0 -171 0 6 23
c10 34 38 70 75 95 47 31 143 31 191 -1z"/>
<path d="M7766 1860 c-132 -42 -191 -167 -136 -287 26 -58 87 -95 227 -139
130 -40 156 -58 156 -103 0 -45 -23 -64 -86 -69 -70 -6 -116 16 -145 67 l-22
39 -82 -24 c-44 -13 -83 -26 -85 -28 -8 -8 25 -74 56 -108 85 -97 303 -122
449 -52 72 35 105 85 110 169 5 77 -9 122 -50 164 -43 44 -87 65 -208 100
-124 36 -150 52 -150 91 0 39 32 60 93 60 59 0 102 -21 122 -61 11 -20 22 -28
33 -25 9 2 44 10 77 17 33 7 62 14 64 15 2 2 -8 28 -23 57 -44 92 -136 137
-270 136 -40 0 -96 -8 -130 -19z"/>
<path d="M8590 1866 c-228 -51 -346 -288 -259 -522 76 -202 351 -290 577 -184
78 36 129 87 168 167 27 53 29 67 29 168 0 99 -3 116 -28 171 -77 166 -274
247 -487 200z m172 -156 c121 -34 180 -196 119 -323 -54 -111 -207 -144 -298
-64 -67 59 -91 160 -61 261 30 99 136 154 240 126z"/>
<path d="M9607 1866 c-27 -7 -69 -27 -93 -44 l-44 -32 0 40 0 40 -100 0 -100
0 0 -370 0 -370 99 0 100 0 3 238 c3 263 8 284 71 322 40 25 125 27 168 4 54
-27 59 -57 59 -324 l0 -240 106 0 106 0 -4 283 c-3 261 -5 285 -24 327 -26 54
-66 93 -118 115 -54 23 -169 28 -229 11z"/>
<path d="M10793 1869 c-110 -21 -208 -96 -259 -196 -27 -54 -29 -66 -29 -173
0 -103 3 -121 26 -170 74 -154 224 -231 411 -210 133 15 240 87 289 193 31 69
28 74 -48 81 -38 4 -79 9 -93 11 -21 4 -28 -1 -43 -35 -27 -58 -69 -84 -142
-88 -71 -4 -114 15 -157 69 -67 83 -57 245 18 316 86 81 226 60 279 -41 l20
-38 60 7 c95 9 125 16 125 29 0 21 -47 111 -74 143 -74 88 -236 132 -383 102z"/>
<path d="M11630 1866 c-75 -16 -154 -61 -201 -114 -122 -139 -114 -397 18
-528 80 -80 238 -126 367 -106 86 14 182 58 231 107 21 21 52 68 69 104 28 61
31 74 30 166 0 79 -5 112 -22 156 -69 174 -273 263 -492 215z m172 -156 c88
-25 137 -102 138 -214 0 -127 -65 -204 -182 -213 -53 -4 -70 -1 -108 19 -115
61 -137 274 -37 366 48 45 120 61 189 42z"/>
<path d="M12447 1870 c-128 -33 -197 -119 -184 -233 12 -96 74 -151 217 -193
163 -48 208 -82 182 -139 -33 -73 -185 -55 -230 26 -19 34 -31 35 -134 4 l-58
-16 15 -37 c46 -111 147 -165 305 -165 196 0 305 83 303 231 -1 94 -36 146
-130 193 -39 19 -97 41 -129 48 -120 26 -165 60 -149 109 13 44 116 56 173 22
18 -11 38 -32 44 -46 9 -19 17 -24 32 -20 12 3 47 11 79 17 56 11 58 13 52 38
-12 51 -59 105 -119 135 -49 25 -71 30 -144 33 -48 1 -104 -2 -125 -7z"/>
<path d="M13761 1870 c-103 -22 -176 -81 -205 -167 -17 -48 -21 -45 78 -62 79
-14 96 -14 96 3 0 8 12 28 26 45 67 80 234 54 234 -37 0 -42 -24 -57 -130 -81
-254 -58 -324 -112 -324 -251 0 -69 15 -109 56 -147 79 -75 266 -73 368 2 37
27 46 24 52 -15 3 -25 5 -25 102 -28 l98 -3 -6 28 c-4 15 -11 145 -15 288 -4
151 -12 271 -18 286 -20 47 -72 96 -125 119 -60 26 -209 36 -287 20z m239
-436 c0 -54 -23 -105 -64 -140 -36 -31 -45 -34 -102 -34 -56 0 -65 3 -83 26
-46 59 -18 102 86 133 167 49 163 48 163 15z"/>
<path d="M3930 1468 c0 -238 -4 -418 -10 -439 -13 -47 -38 -68 -91 -77 l-44
-8 -3 -83 -3 -83 53 7 c182 23 264 90 297 243 7 34 11 193 11 447 l0 395 -105
0 -105 0 0 -402z"/>
<path d="M7090 1500 l0 -370 105 0 105 0 0 213 c0 201 1 215 23 257 27 53 72
79 151 87 l56 6 0 88 0 89 -37 0 c-51 -1 -120 -33 -165 -78 l-38 -36 0 57 0
57 -100 0 -100 0 0 -370z"/>
</g>
</svg>
