<?xml version="1.0" standalone="no"?>
<!DOCTYPE svg PUBLIC "-//W3C//DTD SVG 20010904//EN"
 "http://www.w3.org/TR/2001/REC-SVG-20010904/DTD/svg10.dtd">
<svg version="1.0" xmlns="http://www.w3.org/2000/svg"
 width="959.000000pt" height="208.000000pt" viewBox="0 0 959.000000 208.000000"
 preserveAspectRatio="xMidYMid meet">

<g transform="translate(0.000000,208.000000) scale(0.100000,-0.100000)"
fill="#000000" stroke="none">
<path d="M591 1663 c-24 -9 -63 -35 -86 -58 -76 -75 -75 -67 -75 -685 0 -618
-1 -610 75 -685 77 -77 54 -75 794 -75 522 1 664 4 694 14 55 20 103 61 134
114 l28 47 0 585 0 585 -28 47 c-31 53 -79 94 -134 114 -30 10 -171 13 -698
13 -572 -1 -666 -3 -704 -16z m829 -496 c0 -7 -46 -121 -103 -252 -71 -165
-108 -241 -120 -243 -10 -2 -17 3 -17 13 0 18 187 461 203 483 12 16 37 16 37
-1z m-270 -65 c0 -9 -38 -55 -85 -102 l-85 -85 85 -85 c81 -81 100 -110 73
-110 -16 0 -208 181 -208 196 0 14 194 204 209 204 6 0 11 -8 11 -18z m425
-82 l99 -101 -99 -99 c-55 -55 -105 -100 -112 -100 -35 0 -18 30 63 111 l88
89 -88 89 c-80 82 -96 111 -62 111 7 0 57 -45 111 -100z"/>
<path d="M3594 1316 c-17 -8 -40 -26 -52 -41 -21 -27 -22 -35 -22 -321 l0
-294 35 0 35 0 0 185 0 185 75 0 75 0 0 30 0 30 -75 0 -75 0 0 70 c0 96 14
110 113 110 75 0 97 9 97 42 0 16 -10 18 -87 18 -51 -1 -101 -6 -119 -14z"/>
<path d="M3923 1310 c-67 -41 -68 -43 -71 -362 l-3 -288 35 0 36 0 0 185 0
185 80 0 80 0 0 30 0 30 -80 0 -80 0 0 49 c0 59 16 108 40 121 10 6 50 10 87
10 71 0 93 10 93 42 0 16 -10 18 -92 18 -75 0 -99 -4 -125 -20z"/>
<path d="M8450 1260 l0 -70 -35 0 -36 0 3 -62 c3 -63 3 -63 36 -66 l32 -3 0
-169 0 -170 29 -32 c28 -32 32 -33 120 -36 l91 -4 0 61 0 61 -33 0 c-59 0 -67
19 -67 163 l0 127 50 0 50 0 0 65 0 65 -50 0 -50 0 0 70 0 70 -70 0 -70 0 0
-70z"/>
<path d="M2780 1265 c0 -54 0 -55 30 -55 30 0 30 1 30 55 0 54 0 55 -30 55
-30 0 -30 -1 -30 -55z"/>
<path d="M6795 1181 c-213 -55 -287 -282 -146 -444 75 -85 228 -114 336 -63
50 23 125 95 125 119 0 6 -26 22 -57 34 l-57 23 -31 -30 c-122 -118 -301 14
-228 167 40 85 154 99 225 28 l27 -27 60 23 c34 12 61 27 61 33 0 23 -59 82
-110 110 -56 30 -147 42 -205 27z"/>
<path d="M7383 1176 c-126 -41 -197 -136 -196 -260 1 -149 125 -266 279 -266
110 0 222 70 265 163 41 91 15 219 -60 294 -69 69 -196 99 -288 69z m173 -147
c55 -51 66 -100 38 -169 -22 -55 -65 -84 -126 -84 -80 0 -140 59 -140 136 0
95 59 152 150 145 38 -3 59 -10 78 -28z"/>
<path d="M7964 1170 c-82 -27 -107 -55 -112 -128 -7 -100 46 -151 184 -177
107 -21 114 -24 114 -44 0 -51 -93 -59 -185 -17 l-54 25 -37 -51 c-42 -56 -44
-53 46 -96 48 -24 67 -27 155 -27 82 0 107 4 139 21 52 27 77 62 83 117 12
107 -35 155 -187 187 -106 23 -128 36 -107 64 19 26 92 23 158 -5 31 -14 53
-18 57 -13 4 6 20 27 36 47 34 45 29 55 -47 87 -72 32 -165 36 -243 10z"/>
<path d="M8960 1181 c-148 -48 -218 -206 -163 -366 21 -63 93 -136 149 -153
81 -24 188 -8 235 34 18 16 19 16 19 -9 0 -27 1 -27 70 -27 l70 0 0 260 0 260
-70 0 c-68 0 -70 -1 -70 -26 l0 -25 -35 27 c-30 23 -48 28 -108 30 -40 2 -83
0 -97 -5z m162 -127 c9 -3 31 -21 47 -40 26 -29 31 -43 31 -85 0 -93 -49 -149
-132 -149 -88 0 -148 54 -148 133 0 117 83 174 202 141z"/>
<path d="M3053 1132 c-63 -34 -68 -50 -68 -222 0 -235 15 -250 239 -250 l136
0 0 30 0 30 -129 0 c-159 0 -172 7 -179 93 l-4 57 166 0 166 0 0 83 c0 99 -23
158 -69 181 -44 23 -214 21 -258 -2z m232 -67 c21 -20 25 -34 25 -80 l0 -55
-131 0 -131 0 4 54 c2 30 12 66 21 80 17 25 22 26 103 26 77 0 87 -2 109 -25z"/>
<path d="M4250 1132 c-59 -31 -70 -67 -70 -222 0 -112 4 -142 20 -178 28 -62
59 -72 225 -72 l136 0 -3 28 -3 27 -133 5 c-126 5 -135 6 -153 29 -13 16 -19
39 -19 72 l0 49 166 0 167 0 -5 93 c-8 157 -39 187 -195 187 -76 0 -106 -4
-133 -18z m231 -61 c18 -14 23 -31 27 -80 l4 -61 -132 0 -132 0 4 60 c6 88 21
100 123 100 66 0 88 -4 106 -19z"/>
<path d="M4823 1131 c-17 -11 -36 -27 -41 -37 -8 -15 -11 -13 -17 14 -4 22
-12 32 -26 32 -18 0 -19 -10 -19 -240 l0 -240 30 0 30 0 0 176 0 176 39 39
c36 37 42 39 100 39 l61 0 0 30 0 30 -62 0 c-45 0 -72 -6 -95 -19z"/>
<path d="M5573 1135 c-62 -27 -73 -61 -73 -230 0 -123 3 -156 18 -185 26 -53
70 -70 180 -70 102 0 143 12 182 55 25 26 25 30 25 188 0 180 -9 213 -65 242
-39 20 -221 20 -267 0z m242 -70 c24 -23 25 -29 25 -155 0 -136 -10 -180 -45
-194 -9 -3 -52 -6 -94 -6 -64 0 -83 4 -105 21 -26 20 -26 21 -26 168 0 190 1
191 131 191 82 0 92 -2 114 -25z"/>
<path d="M6165 1135 c-16 -9 -37 -24 -46 -35 -16 -19 -17 -18 -23 10 -4 22
-11 30 -26 30 -20 0 -20 -6 -20 -240 l0 -240 35 0 35 0 0 181 0 181 34 34 c33
33 37 34 110 34 118 0 116 4 116 -235 l0 -195 36 0 35 0 -3 210 -3 210 -33 32
c-31 32 -35 33 -125 36 -69 2 -100 -1 -122 -13z"/>
<path d="M2780 891 c0 -307 -7 -331 -89 -331 -28 0 -31 -3 -31 -30 0 -28 3
-30 35 -30 48 0 97 22 123 55 21 27 22 36 22 306 l0 279 -30 0 -30 0 0 -249z"/>
<path d="M5089 1117 c-60 -41 -77 -113 -39 -174 24 -40 38 -47 135 -67 121
-26 145 -39 145 -79 0 -20 -8 -42 -20 -55 -19 -21 -30 -22 -155 -22 l-135 0 0
-30 0 -30 135 0 c186 0 232 22 242 114 11 94 -33 132 -181 161 -44 8 -88 23
-98 32 -24 21 -23 64 2 91 19 20 30 22 133 22 117 0 137 6 137 42 0 16 -12 18
-134 18 -122 0 -136 -2 -167 -23z"/>
</g>
</svg>
